<svg width="242" height="40" viewBox="0 0 242 40" fill="none" xmlns="http://www.w3.org/2000/svg">
    <g clip-path="url(#clip0_156_379)">
        <path d="M234.409 28.1932C231.955 28.1932 230.167 26.6179 230.167 22.3047C230.167 17.9916 231.97 16.4801 234.409 16.4801C236.959 16.4801 238.777 18.3779 238.777 22.3047C238.777 26.2316 236.959 28.1932 234.409 28.1932ZM233.498 30.7886C236.878 30.7886 238.06 28.3732 238.666 26.8917H240.358C239.752 27.7281 238.922 29.3071 238.922 30.3385H241.633V7.78997H238.636V11.4918C238.636 14.8673 239.465 16.4801 240.391 17.8003H238.636C237.997 15.9662 236.64 13.9109 233.498 13.9109C229.862 13.9109 227.088 17.0989 227.088 22.346C227.088 27.5931 229.862 30.7886 233.498 30.7886ZM218.217 28.1632C215.614 28.1632 213.815 26.2879 213.815 22.4023C213.815 18.5166 215.603 16.5101 218.217 16.5101C220.831 16.5101 222.586 18.4754 222.586 22.4023C222.586 26.3291 220.801 28.1632 218.217 28.1632ZM218.217 30.7886C222.459 30.7886 225.712 27.248 225.712 22.3872C225.712 17.5265 222.586 13.9109 218.217 13.9109C213.848 13.9109 210.692 17.5152 210.692 22.376C210.692 27.173 213.945 30.7773 218.217 30.7773V30.7886ZM202.003 28.1519C199.4 28.1519 197.601 26.2766 197.601 22.391C197.601 18.5054 199.385 16.4988 202.003 16.4988C204.62 16.4988 206.371 18.4641 206.371 22.391C206.371 26.3179 204.583 28.1632 202.003 28.1632V28.1519ZM202.003 30.7886C206.241 30.7886 209.494 27.248 209.494 22.3872C209.494 17.5265 206.371 13.9109 202.003 13.9109C197.634 13.9109 194.474 17.5152 194.474 22.376C194.474 27.173 197.727 30.7773 202.003 30.7773V30.7886ZM181.925 30.7773C187.157 30.7773 189.071 27.203 189.678 25.5265H191.165C190.411 27.0161 189.986 28.6526 189.919 30.3235H193.013V19.2143H182.011V22.1622H189.73C189.536 24.8626 187.127 27.8256 182.84 27.8256C178.379 27.8256 175.252 24.6076 175.252 19.008C175.252 13.2771 179.044 10.3179 182.967 10.3179C186.733 10.3179 188.741 12.4407 189.826 15.4037L193.076 14.0835C191.931 10.6704 188.707 7.3324 183.037 7.3324C176.914 7.3324 171.842 12.1256 171.842 19.0455C171.842 26.2541 176.021 30.7623 181.918 30.7623" fill="white" />
        <path d="M153.583 34.0178C152.055 34.0178 151.192 33.6428 151.192 32.3451C151.2 31.9374 151.31 31.5383 151.51 31.1845C151.711 30.8306 151.997 30.5333 152.341 30.3197H159.74C161.015 30.3197 162.131 30.6385 162.131 32.1538C162.131 33.669 161.015 34.0291 159.74 34.0291L153.583 34.0178ZM156.185 23.3361C154.111 23.3361 152.772 21.9522 152.772 19.8256C152.772 17.699 154.111 16.285 156.185 16.285C158.26 16.285 159.595 17.7328 159.595 19.8256C159.595 21.9184 158.256 23.3361 156.185 23.3361ZM160.108 36.5945C162.848 36.5945 165.146 35.113 165.146 32.12C165.146 29.4496 163.134 27.6456 160.041 27.6456H153.185C152.103 27.6456 151.783 27.1655 151.783 26.6179C151.783 26.0703 152.326 25.459 153.185 25.1177C154.119 25.5698 155.15 25.7799 156.185 25.729C159.725 25.729 162.179 23.4149 162.465 19.8106L162.528 19.038C162.658 17.2039 163.168 16.8814 164.506 16.8814H165.815V14.3685H164.729C163.201 14.3685 162.435 15.5274 162.305 17.0427H161.19C160.647 15.7225 159.212 13.9184 155.866 13.9184C152.263 13.9184 149.805 16.4951 149.805 19.5181C149.805 21.5809 150.549 22.6723 151.527 23.4787V24.6376C149.999 25.279 149.17 26.2466 149.17 27.4693C149.189 27.9215 149.35 28.3557 149.631 28.7086C149.912 29.0614 150.298 29.3145 150.731 29.4309V30.5898C149.359 31.2011 148.53 32.2625 148.53 33.7103C148.53 35.0005 149.486 36.6095 152.356 36.6095L160.108 36.5945ZM136.934 30.3197V23.4299C136.934 21.1796 137.001 16.5438 141.146 16.5438C143.187 16.5438 144.492 17.7028 144.492 20.5682V30.3197H147.493V19.8894C147.493 16.3488 145.835 13.8884 141.975 13.8884C138.975 13.8884 137.384 16.3676 136.904 18.0403H135.275C136.075 16.8176 136.807 15.3061 136.807 14.3385H133.937V30.3047L136.934 30.3197ZM131.728 14.3535H128.698V30.316H131.728V14.3535ZM131.792 7.78997H128.602V11.3943H131.792V7.78997ZM110.636 30.3197L112.964 22.8823C113.576 20.9259 113.877 18.8841 113.856 16.8326H115.261C115.257 18.8829 115.558 20.9221 116.154 22.8823L118.385 30.3197H121.924L127.252 14.3535H124.092L121.827 21.6934C121.24 23.6387 120.939 25.6607 120.935 27.6943H119.597C119.561 25.9953 119.311 24.3077 118.853 22.6723L116.366 14.3685H112.856L110.562 21.9672C109.983 23.8227 109.66 25.7499 109.603 27.6943H108.298C108.298 25.6941 108.011 23.7045 107.446 21.7872L105.215 14.3497H102.089L107.257 30.316L110.636 30.3197ZM94.6712 28.1632C92.0686 28.1632 90.2691 26.2879 90.2691 22.4023C90.2691 18.5166 92.0574 16.5101 94.6712 16.5101C97.2849 16.5101 99.0398 18.4754 99.0398 22.4023C99.0398 26.3291 97.2552 28.1632 94.6712 28.1632ZM94.6712 30.7886C98.9134 30.7886 102.167 27.248 102.167 22.3872C102.167 17.5265 99.0398 13.9109 94.6712 13.9109C90.3025 13.9109 87.1459 17.5152 87.1459 22.376C87.1459 27.173 90.3992 30.7773 94.6712 30.7773V30.7886ZM80.0223 30.3272V23.2011C80.0223 19.3718 81.4909 17.2489 84.9969 17.2489C85.563 17.2547 86.128 17.2973 86.6886 17.3765V14.286C86.2021 14.1664 85.702 14.1122 85.2014 14.1247C81.9816 14.1247 80.6729 16.2175 79.9702 18.9217H78.2525C78.9961 17.729 79.9442 15.8012 79.9442 14.3497H77.0404V30.316L80.0223 30.3272ZM63.6259 30.7773C68.8571 30.7773 70.7682 27.203 71.3742 25.5265H72.8614C72.1093 27.0164 71.6856 28.6529 71.6196 30.3235H74.713V19.2143H63.7114V22.1622H71.4262C71.2366 24.8626 68.8459 27.8256 64.5405 27.8256C60.0789 27.8256 56.9484 24.6076 56.9484 19.008C56.9484 13.2771 60.7444 10.3179 64.6669 10.3179C68.4295 10.3179 70.4373 12.4407 71.5229 15.4037L74.7762 14.0835C73.6273 10.6704 70.4075 7.3324 64.7376 7.3324C58.614 7.3324 53.5464 12.1256 53.5464 19.0455C53.5464 26.2541 57.7217 30.7623 63.6222 30.7623" fill="white" />
        <path d="M0.211882 16.465C0.717529 13.7384 0.672933 13.7309 3.25322 14.6835C4.39837 15.1036 5.54597 15.5211 6.69607 15.9362C7.19428 16.1162 7.63302 16.3113 7.49545 16.9526C7.45083 18.9142 7.12365 19.1429 5.26465 18.6066C3.97116 18.2022 2.6389 17.937 1.29011 17.8152C0.349457 17.7515 0.0297035 17.4664 0.215603 16.465" fill="white" />
        <path d="M2.07099 10.9967C3.55819 7.56864 3.88167 7.47863 6.66645 9.83024L8.94559 11.7468C9.18354 11.9531 9.46238 12.1219 9.44379 12.4969C9.42406 12.7565 9.34795 13.0085 9.22085 13.235C9.09376 13.4616 8.9188 13.6571 8.70838 13.8078C8.49796 13.9585 8.25723 14.0607 8.00329 14.107C7.74935 14.1533 7.48843 14.1427 7.23902 14.0759C5.71092 13.5321 4.19398 12.9507 2.65844 12.4219C1.85907 12.1481 1.74382 11.7543 2.07844 10.9967" fill="white" />
        <path d="M6.12348 5.56582C8.52902 2.78664 9.09788 2.82414 10.9123 5.94088C11.522 6.9948 12.1206 8.04871 12.7043 9.06512C12.459 9.87525 11.7637 10.1265 11.2803 10.5654C10.942 10.8767 10.6148 10.5991 10.3285 10.3591C8.94172 9.20014 7.56977 8.02621 6.16437 6.88603C5.5918 6.42096 5.67732 6.06465 6.12348 5.55082" fill="white" />
        <path d="M11.377 2.89176C11.0275 2.30667 11.2432 1.96911 11.7972 1.72908L11.9199 1.67282C15.307 -0.0299499 15.6379 0.135076 16.2179 3.81815C16.374 4.79705 16.5674 5.77221 16.6863 6.42481C16.8276 7.60999 16.1881 7.77502 15.5709 8.01131C14.9537 8.24759 14.4555 8.24009 14.0837 7.58374C13.1964 6.01099 12.2917 4.447 11.3696 2.89176" fill="white" />
        <path d="M18.9579 37.9634C19.0545 40.0788 19.0397 40.0975 16.9093 39.8387C8.1385 38.7961 0.353023 30.4098 0.0221208 21.6484C-0.0559571 19.5818 -0.0522482 19.5781 2.01124 19.8444C10.9344 20.992 18.5526 29.1158 18.9579 37.9597" fill="white" />
        <path d="M17.7942 1.77778C17.5191 0.165026 17.6567 0.0187529 19.3484 0H20.5679C22.3897 0.0187529 22.4641 0.0825125 22.1889 1.82654C21.9547 3.29301 21.6386 4.74824 21.4044 6.21472C21.2743 7.03985 20.7501 7.18237 20.0474 7.19362C19.3446 7.20488 18.7237 7.0361 18.5602 6.16596C18.3148 4.69948 18.0248 3.24051 17.7757 1.77778" fill="white" />
        <path d="M23.2672 6.75101C23.5832 5.00699 23.9104 3.31547 24.1892 1.61646C24.3231 0.828834 24.6242 0.562542 25.4757 0.757573C29.071 1.57145 29.216 1.85274 27.4016 5.02574C26.9034 5.88837 26.3754 6.73976 25.9144 7.6249C25.5054 8.41252 24.9589 8.26625 24.3194 7.99996C23.6799 7.73366 23.0701 7.57239 23.2634 6.74726" fill="white" />
        <path d="M20.252 32.4012C20.1739 32.645 19.962 32.7763 19.8058 32.4012C19.1594 30.6785 18.3304 29.0312 17.3333 27.488C15.6275 24.9513 13.4245 22.7941 10.8603 21.1495C9.10912 20.0243 8.88604 19.3942 9.37309 17.3989C9.98272 15.016 11.3715 12.9103 13.3147 11.4225C15.2579 9.93461 17.6418 9.1516 20.0809 9.20013C22.4992 9.20714 24.846 10.0281 26.7493 11.533C28.6526 13.0379 30.0035 15.1405 30.588 17.5077C30.9189 18.9104 30.7702 20.1068 29.4317 20.9545C25.1662 23.6012 21.9269 27.6405 20.252 32.4012Z" fill="white" />
        <path d="M27.6394 8.45376C28.5205 7.02854 29.3422 5.56581 30.1528 4.10308C30.5543 3.37922 31.0116 3.2217 31.6399 3.76553C32.3835 4.38063 33.0974 4.98447 33.8075 5.61457C33.9721 5.79231 34.1122 5.99164 34.224 6.20716C34.1903 6.37721 34.1228 6.53862 34.0257 6.68171C33.9286 6.82479 33.8038 6.94659 33.6588 7.03979C32.3724 8.11621 31.0562 9.16637 29.807 10.269C29.2158 10.7866 28.7697 10.8054 28.1822 10.2465C27.5948 9.68771 27.0668 9.3389 27.6208 8.45376" fill="white" />
        <path d="M31.034 11.7468C32.365 10.6667 33.67 9.55649 34.975 8.44256C35.5402 7.95874 35.99 7.97749 36.4288 8.61509C37.0987 9.53448 37.659 10.5302 38.0981 11.5818C38.0721 12.1481 37.7264 12.2682 37.3806 12.3957C35.7298 13.0033 34.0753 13.5959 32.4319 14.2185C31.4355 14.5935 31.2199 13.7947 30.8072 13.2321C30.3945 12.6695 30.4837 12.2007 31.0414 11.7318" fill="white" />
        <path d="M38.0984 14.1922C38.8122 13.9259 39.2138 14.1509 39.3736 14.8936C39.3736 14.9798 39.4145 15.0661 39.4406 15.1561C40.1247 17.5115 40.1247 17.4965 37.734 17.9465C36.7153 18.1378 35.6965 18.3516 34.7001 18.6329C32.8411 19.1467 32.5102 18.9292 32.4693 16.9864C32.3652 16.4576 32.6366 16.1838 33.1349 16.0075C34.7931 15.4186 36.4476 14.8073 38.0984 14.1922Z" fill="white" />
        <path d="M39.9869 21.8359C39.5405 26.4544 37.5354 30.7782 34.3072 34.0839C31.0789 37.3896 26.8232 39.4768 22.2521 39.9963C20.9099 40.09 21.0028 38.2297 21.0028 38.2297C21.2594 29.3858 28.9445 21.0595 37.8231 19.8519C39.8568 19.5743 40.2509 19.1543 39.9869 21.8359Z" fill="white" />
    </g>
    <defs>
        <clipPath id="clip0_156_379">
            <rect width="241.633" height="40" fill="white" />
        </clipPath>
    </defs>
</svg>